<svg xmlns="http://www.w3.org/2000/svg" viewBox="0 0 119.98 126.14"><defs><style>.cls-1{font-size:24px;font-family:ShreeDev0714, "Shree Devanagari 714";}.cls-1,.cls-2{fill:#fff;}.cls-3,.cls-4,.cls-5{fill:none;stroke:#fff;stroke-linecap:round;stroke-linejoin:round;}.cls-3{stroke-width:0.5px;}.cls-4{stroke-width:0.2px;}.cls-5{stroke-width:0.1px;}</style></defs><title>Plan de travail 1</title><g id="CAB_ELITE" data-name="CAB ELITE"><text class="cls-1" transform="translate(9.14 112.11) scale(0.88 1)">CAB ELITE</text></g><g id="original"><path class="cls-2" d="M85.78,15.62c-4.92-1.37-9.83-2.8-14.73-4.24-3.16-.93-6.32-1.91-9.47-2.87h-1.2c-.4.16-.79.36-1.19.48Q47.58,12.35,36,15.72a2.16,2.16,0,0,0-.81.45l.15.14,0-.14L57.3,24.54c-1,1.8-2,3.48-3,5.22l-4-2.08-.15.23,5.33,3.91c.52-.92,1-1.79,1.49-2.65,1.28.89,1.29.9,1,2.29q-1.83,9-3.67,17.95a4,4,0,0,1-.21.59L37.49,43.73c-.64,1.08-.48,1.63.73,2.07,4.84,1.76,9.64,3.62,14.45,5.45l1.15.46c-1.68,8.18-3.34,16.27-5,24.52l-1-.19a11.79,11.79,0,0,1,1.51,1.29c2.72,3.19,5.4,6.41,8.1,9.62,1.19,1.42,2.39,2.83,3.66,4.33,2-2.44,3.93-4.74,5.86-7,2.21-2.61,4.44-5.21,6.66-7.82a4,4,0,0,1-.48-.91Q68.55,53.37,64,31.21a1.84,1.84,0,0,1,1-2.11l1.55,2.71,5.62-4.12-.1-.17-4.35,2.22-3-5.21,21.84-8.34,0,.1.19-.13A2,2,0,0,0,85.78,15.62Z"/><path class="cls-2" d="M94.28,52.39s0-.06,0-.09l0-.07h0v0a.37.37,0,0,1,0-.11h0l0-.27v0a.19.19,0,0,1,0-.08c0-.08,0-.15-.07-.22a4.27,4.27,0,0,1-.15-.71h-.06c.17.82-.15,1.07-.86,1.33-2.62,1-5.22,2-7.83,3l-10.68,4c.13.57.23,1.06.35,1.63l19.51-7.37c0,.14.07.27.1.41l.12-.06a5.88,5.88,0,0,1-.24-1.25S94.29,52.42,94.28,52.39Z"/><path class="cls-2" d="M89.83,30.74a2.44,2.44,0,0,0-.06-.26,1,1,0,0,1-.09-.36q-.09-.3-.15-.6a1,1,0,0,1,0-.24l0-.05a0,0,0,0,0,0,0c-.06.7-.63,1-1.44,1.32-5.64,2.07-11.26,4.22-16.88,6.35-.4.15-.77.34-1.14.51.12.56.21,1,.34,1.57l19.48-7.36.05.18.12-.05s0-.1,0-.15C89.93,31.29,89.89,31,89.83,30.74Z"/></g><g id="Calque_Travail" data-name="Calque Travail"><polyline id="_5" data-name="5" class="cls-3" points="35.28 16.41 24.86 67.31 48.98 76.41"/><polyline id="_4" data-name="4" class="cls-3" points="73.03 76.41 97.15 67.31 86.63 16.34"/><line id="_3" data-name="3" class="cls-4" x1="35.12" y1="17.76" x2="35.49" y2="16.16"/><line id="_2" data-name="2" class="cls-4" x1="86.58" y1="16.73" x2="86.43" y2="16.15"/><line id="_1" data-name="1" class="cls-5" x1="35.25" y1="16.17" x2="35.14" y2="16.26"/></g></svg>