<?xml version="1.0" encoding="utf-8"?>
<!-- Generator: Adobe Illustrator 16.0.0, SVG Export Plug-In . SVG Version: 6.00 Build 0)  -->
<!DOCTYPE svg PUBLIC "-//W3C//DTD SVG 1.1//EN" "http://www.w3.org/Graphics/SVG/1.1/DTD/svg11.dtd">
<svg version="1.1" id="Calque_1" xmlns="http://www.w3.org/2000/svg" xmlns:xlink="http://www.w3.org/1999/xlink" x="0px" y="0px"
	 width="136.667px" height="131.001px" viewBox="0 0 136.667 131.001" enable-background="new 0 0 136.667 131.001"
	 xml:space="preserve">
<rect x="-0.266" y="0.276" fill="#FFFFFF" width="136.833" height="130.968"/>
<g>
	<polygon points="68.135,7.516 42.201,15.016 68.141,24.915 94.083,15.016 	"/>
	<polygon points="63.524,51.62 44.196,44.3 44.512,42.725 64.085,50.138 	"/>
	<polygon points="77.475,37.922 97.065,30.504 96.75,28.929 77.176,36.342 	"/>
	<polygon points="81.973,59.716 101.563,52.298 101.248,50.723 81.674,58.137 	"/>
	<g>
		<polyline points="66.761,22.717 55.892,75.588 68.204,90.234 80.414,75.573 69.61,22.729 		"/>
		<polygon points="64.976,22.717 61.451,28.827 56.256,26.101 62.619,30.777 64.178,27.919 66.775,30.646 66.775,22.724 		"/>
		<polygon points="71.365,22.717 74.89,28.827 80.085,26.101 73.722,30.777 72.163,27.919 69.565,30.646 69.565,22.724 		"/>
	</g>
	<polyline fill="none" stroke="#000000" stroke-width="0.25" stroke-miterlimit="10" points="42.34,15.031 31.758,66.416 
		57.642,76.179 	"/>
	<polyline fill="none" stroke="#000000" stroke-width="0.25" stroke-miterlimit="10" points="78.66,76.197 104.543,66.435 
		93.961,15.05 	"/>
</g>
<rect x="6.15" y="93.856" fill="none" width="124" height="37.5"/>
<text transform="matrix(1 0 0 1 16.3965 111.4561)" font-family="'Marbre-Sans'" font-size="22" letter-spacing="2">CAB ELITE</text>
<line fill="#D6A946" x1="21.963" y1="113.356" x2="114.338" y2="113.356"/>
<rect x="17.15" y="115.189" fill="none" width="102" height="12"/>
<text transform="matrix(1 0 0 1 31.5376 118.9023)" fill="#D6A946" font-family="'Futura-Medium'" font-size="4.5">SERVICES &amp; TRANSPORTS</text>
</svg>
